<mxfile host="app.diagrams.net" modified="2023-04-11T09:36:21.272Z" agent="Mozilla/5.0 (Windows NT 10.0; Win64; x64) AppleWebKit/537.36 (KHTML, like Gecko) Chrome/112.0.0.0 Safari/537.36 Edg/112.0.1722.34" etag="U9ZTbUnEdX-atBHMopHR" version="21.1.4" type="github">
  <diagram name="Page-1" id="wW1m3Rc3jWvj9a-EmoBQ">
    <mxGraphModel dx="2074" dy="1148" grid="1" gridSize="10" guides="1" tooltips="1" connect="1" arrows="1" fold="1" page="1" pageScale="1" pageWidth="850" pageHeight="1100" math="0" shadow="0">
      <root>
        <mxCell id="0" />
        <mxCell id="1" parent="0" />
        <mxCell id="_v3G_Rp7L3uwOA6iTtzw-3" value="" style="edgeStyle=orthogonalEdgeStyle;rounded=0;orthogonalLoop=1;jettySize=auto;html=1;" edge="1" parent="1" source="_v3G_Rp7L3uwOA6iTtzw-1" target="_v3G_Rp7L3uwOA6iTtzw-2">
          <mxGeometry relative="1" as="geometry" />
        </mxCell>
        <mxCell id="_v3G_Rp7L3uwOA6iTtzw-1" value="Start" style="ellipse;whiteSpace=wrap;html=1;aspect=fixed;fillColor=#d5e8d4;strokeColor=#82b366;" vertex="1" parent="1">
          <mxGeometry x="360" y="80" width="80" height="80" as="geometry" />
        </mxCell>
        <mxCell id="_v3G_Rp7L3uwOA6iTtzw-9" value="" style="edgeStyle=orthogonalEdgeStyle;rounded=0;orthogonalLoop=1;jettySize=auto;html=1;" edge="1" parent="1" source="_v3G_Rp7L3uwOA6iTtzw-2" target="_v3G_Rp7L3uwOA6iTtzw-8">
          <mxGeometry relative="1" as="geometry" />
        </mxCell>
        <mxCell id="_v3G_Rp7L3uwOA6iTtzw-2" value="Calculate how many payment requests are waiting for post payment adjustment" style="rounded=1;whiteSpace=wrap;html=1;" vertex="1" parent="1">
          <mxGeometry x="340" y="200" width="120" height="60" as="geometry" />
        </mxCell>
        <mxCell id="_v3G_Rp7L3uwOA6iTtzw-4" value="- From valid payment&lt;br&gt;- Invoice is valid&lt;br&gt;- is outdated is false&lt;br&gt;- enrichment redundant flag is false" style="text;html=1;strokeColor=none;fillColor=none;align=left;verticalAlign=middle;whiteSpace=wrap;rounded=0;" vertex="1" parent="1">
          <mxGeometry x="470" y="215" width="370" height="30" as="geometry" />
        </mxCell>
        <mxCell id="_v3G_Rp7L3uwOA6iTtzw-6" value="" style="ellipse;whiteSpace=wrap;html=1;aspect=fixed;fillColor=#f8cecc;strokeColor=#b85450;" vertex="1" parent="1">
          <mxGeometry x="670" y="245" width="10" height="10" as="geometry" />
        </mxCell>
        <mxCell id="_v3G_Rp7L3uwOA6iTtzw-7" value="" style="ellipse;whiteSpace=wrap;html=1;aspect=fixed;fillColor=#f8cecc;strokeColor=#b85450;" vertex="1" parent="1">
          <mxGeometry x="590" y="230" width="10" height="10" as="geometry" />
        </mxCell>
        <mxCell id="_v3G_Rp7L3uwOA6iTtzw-11" value="No" style="edgeStyle=orthogonalEdgeStyle;rounded=0;orthogonalLoop=1;jettySize=auto;html=1;" edge="1" parent="1" source="_v3G_Rp7L3uwOA6iTtzw-8" target="_v3G_Rp7L3uwOA6iTtzw-10">
          <mxGeometry relative="1" as="geometry" />
        </mxCell>
        <mxCell id="_v3G_Rp7L3uwOA6iTtzw-13" value="" style="edgeStyle=orthogonalEdgeStyle;rounded=0;orthogonalLoop=1;jettySize=auto;html=1;" edge="1" parent="1" source="_v3G_Rp7L3uwOA6iTtzw-8" target="_v3G_Rp7L3uwOA6iTtzw-12">
          <mxGeometry relative="1" as="geometry" />
        </mxCell>
        <mxCell id="_v3G_Rp7L3uwOA6iTtzw-14" value="Yes" style="edgeLabel;html=1;align=center;verticalAlign=middle;resizable=0;points=[];" vertex="1" connectable="0" parent="_v3G_Rp7L3uwOA6iTtzw-13">
          <mxGeometry x="-0.2222" y="7" relative="1" as="geometry">
            <mxPoint x="-8" as="offset" />
          </mxGeometry>
        </mxCell>
        <mxCell id="_v3G_Rp7L3uwOA6iTtzw-8" value="Are there payment requests to calculate" style="rhombus;whiteSpace=wrap;html=1;rounded=1;" vertex="1" parent="1">
          <mxGeometry x="360" y="330" width="80" height="80" as="geometry" />
        </mxCell>
        <mxCell id="_v3G_Rp7L3uwOA6iTtzw-10" value="End" style="ellipse;whiteSpace=wrap;html=1;rounded=1;fillColor=#f8cecc;strokeColor=#b85450;" vertex="1" parent="1">
          <mxGeometry x="520" y="330" width="80" height="80" as="geometry" />
        </mxCell>
        <mxCell id="_v3G_Rp7L3uwOA6iTtzw-12" value="" style="whiteSpace=wrap;html=1;rounded=1;" vertex="1" parent="1">
          <mxGeometry x="340" y="500" width="120" height="60" as="geometry" />
        </mxCell>
      </root>
    </mxGraphModel>
  </diagram>
</mxfile>
